<svg id="Capa_1" data-name="Capa 1" xmlns="http://www.w3.org/2000/svg" viewBox="0 0 1309.46 356.25"><defs><style>.cls-1{fill:#721922;}.cls-2{fill:#e22835;}</style></defs><title>Mesa de trabajo 2-123</title><path class="cls-1" d="M104.27,47.47H163l45,276.06H164.61l-7.89-54.82v.79H107.43l-7.89,54H59.31ZM151.59,232,132.27,95.58h-.79L112.55,232Z"/><path class="cls-1" d="M248,309.72Q231.65,292,231.65,259.64V111.36Q231.65,79,248,61.27t47.52-17.74q31.16,0,47.53,17.74t16.36,50.09v29.18h-41V108.6Q318.41,83,296.72,83T275,108.6V262.79Q275,288,296.72,288t21.69-25.24V220.6h41v39q0,32.34-16.36,50.08t-47.53,17.75Q264.38,327.47,248,309.72Z"/><path class="cls-1" d="M425.28,47.47H484l45,276.06H485.62l-7.89-54.82v.79H428.44l-7.89,54H380.32ZM472.6,232,453.28,95.58h-.79L433.56,232Z"/><path class="cls-1" d="M556.2,47.47h66.26q32.32,0,48.51,17.35t16.17,50.88V255.3q0,33.52-16.17,50.87t-48.51,17.36H556.2Zm65.47,236.62q10.65,0,16.37-6.31t5.71-20.51V113.72q0-14.19-5.71-20.5t-16.37-6.31H599.59V284.09Z"/><path class="cls-1" d="M722.62,47.47H840.94V86.91H766v73h59.55V199.3H766v84.79h74.93v39.44H722.62Z"/><path class="cls-1" d="M872.09,47.47H934l27.61,197.58h.79L990,47.47h61.92V323.53h-41v-209h-.79l-31.55,209H942.29l-31.55-209H910v209H872.09Z"/><path class="cls-1" d="M1130.4,206,1078,47.47h46.14l29.57,101.35h.79L1184,47.47h42.2L1173.78,206V323.53H1130.4Z"/><path class="cls-2" d="M121.86,32.72h58.76l45,276.06H182.2L174.31,254v.78H125l-7.89,54H76.9Zm47.32,184.57L149.86,80.84h-.79L130.14,217.29Z"/><path class="cls-2" d="M265.6,295q-16.37-17.75-16.36-50.08V96.61q0-32.33,16.36-50.08t47.52-17.75q31.15,0,47.53,17.75T377,96.61V125.8H336V93.85q0-25.63-21.69-25.63T292.62,93.85v154.2q0,25.24,21.69,25.24T336,248.05v-42.2h41V244.9q0,32.34-16.36,50.08t-47.53,17.75Q282,312.73,265.6,295Z"/><path class="cls-2" d="M442.87,32.72h58.76l45,276.06H503.21L495.32,254v.78H446l-7.89,54H397.91Zm47.32,184.57L470.87,80.84h-.79L451.15,217.29Z"/><path class="cls-2" d="M573.8,32.72h66.25q32.33,0,48.51,17.36T704.73,101V240.56q0,33.53-16.17,50.87t-48.51,17.35H573.8Zm65.46,236.63q10.65,0,16.37-6.31t5.72-20.51V99q0-14.2-5.72-20.51t-16.37-6.31H617.18V269.35Z"/><path class="cls-2" d="M740.22,32.72H858.53V72.16H783.6v73h59.55v39.44H783.6v84.79h74.93v39.43H740.22Z"/><path class="cls-2" d="M889.68,32.72h61.91L979.2,230.3H980l27.6-197.58h61.92V308.78h-41v-209h-.79l-31.55,209H959.88l-31.55-209h-.79v209H889.68Z"/><path class="cls-2" d="M1148,191.26,1095.54,32.72h46.14l29.58,101.36h.78l29.58-101.36h42.2l-52.45,158.54V308.78H1148Z"/><polygon class="cls-1" points="104.27 47.47 121.86 32.72 119.46 47.47 104.27 47.47"/><polygon class="cls-1" points="207.99 323.53 225.58 308.78 205.59 308.78 207.99 323.53"/><polygon class="cls-1" points="99.53 323.53 117.12 308.78 101.67 308.88 99.53 323.53"/><polygon class="cls-1" points="359.42 140.54 377.01 125.8 359.42 125.8 359.42 140.54"/><polygon class="cls-1" points="318.37 220.58 335.96 205.84 335.96 220.58 318.37 220.58"/><polygon class="cls-1" points="425.4 47.9 442.99 33.16 440.59 47.9 425.4 47.9"/><polygon class="cls-1" points="422.67 308.78 420.52 323.53 438.11 308.78 422.67 308.78"/><polygon class="cls-1" points="546.59 308.78 526.6 308.8 529 323.53 546.59 308.78"/><polygon class="cls-1" points="556.33 47.78 573.92 33.04 573.92 47.78 556.33 47.78"/><polygon class="cls-1" points="722.75 47.77 740.34 33.02 740.34 47.77 722.75 47.77"/><polyline class="cls-1" points="841.06 72.46 841.06 87.21 858.65 72.46"/><polygon class="cls-1" points="825.68 185.13 825.68 199.87 843.27 185.13 825.68 185.13"/><polygon class="cls-1" points="858.53 308.78 840.93 308.78 840.93 323.53 858.53 308.78"/><polygon class="cls-1" points="889.68 32.72 872.09 47.47 889.68 47.47 889.68 32.72"/><polygon class="cls-1" points="927.53 308.78 909.94 308.78 909.94 323.53 927.53 308.78"/><polygon class="cls-1" points="980.76 308.78 996.13 308.78 978.54 323.53 980.76 308.78"/><polygon class="cls-1" points="1007.58 32.72 989.99 47.47 1005.52 47.47 1007.58 32.72"/><polygon class="cls-1" points="1069.51 308.78 1051.92 308.78 1051.92 323.53 1069.51 308.78"/><polygon class="cls-1" points="1100.54 47.47 1095.66 32.72 1078.07 47.47 1100.54 47.47"/><polygon class="cls-1" points="1201.62 32.72 1184.03 47.47 1197.32 47.47 1201.62 32.72"/><polygon class="cls-1" points="1173.78 308.78 1191.37 308.78 1173.78 323.53 1173.78 308.78"/></svg>