<svg xmlns="http://www.w3.org/2000/svg" viewBox="0 0 763.39 187.52"><defs><style>.cls-1{fill:#024056;}.cls-2{fill:#e22835;}</style></defs><title>Recurso 33</title><g id="Capa_2" data-name="Capa 2"><g id="Capa_1-2" data-name="Capa 1"><path class="cls-1" d="M271.3,166.09v21.43l-64.1-32.06-.19-.09A19,19,0,0,1,196.3,139.3V0l10.53,5.27.18.09,10.72,5.35V128.58a19,19,0,0,0,10.71,16.08l.19.09Z"/><path class="cls-2" d="M346.31,10.71V150l-10.59,5.3-.12.06c-10.72,5.36-10.72-5.36-10.72-5.36V32.14L314.17,37.5V80.36l-10.72,5.36V42.86l-10.71,5.36V176.8L271.3,187.52V37.5l64.12-32,.06,0,.12-.06C346.31,0,346.31,10.71,346.31,10.71Z"/></g><g id="Capa_3" data-name="Capa 3"><path class="cls-2" d="M378.67,39.38h21.2L409.32,107h.27L419,39.38h21.19v94.5h-14V62.33h-.27l-10.8,71.55H402.7L391.9,62.33h-.27v71.55h-13Z"/><path class="cls-2" d="M473.85,39.38H494l15.39,94.5H494.5l-2.7-18.77v.27H474.93l-2.7,18.5H458.46Zm16.2,63.18-6.62-46.71h-.27l-6.48,46.71Z"/><path class="cls-2" d="M526.24,120.65l27.54-67.77H527.59V39.38h42.12V52.61l-27.54,67.77h27.54v13.5H526.24Z"/><path class="cls-2" d="M587.15,120.65l27.54-67.77H588.5V39.38h42.12V52.61l-27.54,67.77h27.54v13.5H587.15Z"/><path class="cls-2" d="M663.09,39.38H683.2l15.39,94.5H683.74L681,115.11v.27H664.17l-2.7,18.5H647.7Zm16.2,63.18-6.62-46.71h-.27l-6.48,46.71Z"/><path class="cls-2" d="M716.81,39.38h18.63l14.45,56.56h.27V39.38h13.23v94.5H748.13l-17.82-69H730v69H716.81Z"/><path class="cls-1" d="M0,38.28H14.85v81H39.29v13.5H0Z"/><path class="cls-1" d="M58.72,38.28h40.5v13.5H73.57v25H94v13.5H73.57v29H99.22v13.5H58.72Z"/><path class="cls-1" d="M124.74,127.92q-5.8-6.21-5.81-17.55V60.69q0-11.34,5.81-17.55t16.74-6.21q10.94,0,16.74,6.21T164,60.69v49.68q0,11.34-5.8,17.55t-16.74,6.21Q130.55,134.13,124.74,127.92Zm24.43-16.61V59.74q0-9.32-7.69-9.31t-7.7,9.31v51.57q0,9.31,7.7,9.32T149.17,111.31Z"/></g></g></svg>