<svg xmlns="http://www.w3.org/2000/svg" viewBox="0 0 505.3 541.05"><defs><style>.cls-1{fill:#666;}.cls-2,.cls-5,.cls-6,.cls-7{fill:none;stroke-miterlimit:10;}.cls-2{stroke:#9c9b9b;}.cls-3{fill:#e22835;}.cls-4{fill:#999;}.cls-4,.cls-6,.cls-7{opacity:0.25;}.cls-5{stroke:#e22835;stroke-width:5px;opacity:0.51;}.cls-6{stroke:#fde8c6;}.cls-6,.cls-7{stroke-width:4px;}.cls-7{stroke:#999;}.cls-8{fill:#897a6d;}.cls-9{fill:#cebca3;}.cls-10{fill:#fde8c6;}.cls-11{fill:#af222f;}.cls-12{fill:#2f2f2f;}.cls-13{opacity:0.47;}.cls-14{fill:#848484;}.cls-15{fill:#c4c4c4;}.cls-16{fill:#e9ebee;}.cls-17{fill:#024056;}</style></defs><title>Recurso 1</title><g id="Capa_2" data-name="Capa 2"><g id="Capa_2-2" data-name="Capa 2"><polygon class="cls-1" points="365.03 366.35 327.63 347.65 290.24 366.35 327.63 385.05 365.03 366.35"/><polygon class="cls-1" points="151.46 347.65 114.06 328.95 76.66 347.65 114.06 366.35 151.46 347.65"/><polygon class="cls-1" points="114.06 424.1 76.66 405.4 39.26 424.1 76.66 442.8 114.06 424.1"/><polygon class="cls-1" points="238.27 403.75 178.03 373.63 117.8 403.75 178.03 433.86 238.27 403.75"/><polygon class="cls-2" points="399.08 364.24 324.95 327.18 250.83 364.24 324.95 401.3 399.08 364.24"/><polygon class="cls-3" points="33.74 358.63 26.27 362.37 41.23 369.85 48.53 366.02 33.74 358.63"/><polygon class="cls-3" points="100.97 366.11 108.45 369.85 123.41 362.37 115.93 358.63 100.97 366.11"/><polygon class="cls-3" points="123.41 403.51 108.45 396.03 100.97 399.77 115.93 407.25 123.41 403.51"/><polyline class="cls-3" points="34.27 407.25 26.18 403.51 41.14 396.03 48.62 399.77 33.66 407.25"/><polygon class="cls-4" points="52.35 409.12 59.83 405.38 74.79 412.86 74.79 420.34 52.35 409.12"/><polygon class="cls-4" points="97.23 409.12 89.75 405.38 74.8 412.86 74.8 420.34 97.23 409.12"/><polygon class="cls-4" points="22.44 394.16 29.92 390.42 14.96 382.94 0 382.94 22.44 394.16"/><polyline class="cls-4" points="15.17 382.83 0 382.94 22.44 371.72 29.92 375.46 14.96 382.94"/><polygon class="cls-4" points="52.36 356.76 59.84 360.5 74.8 353.02 74.8 345.54 52.36 356.76"/><polygon class="cls-4" points="97.23 356.76 74.8 345.54 74.8 353.02 89.75 360.5 97.23 356.76"/><polygon class="cls-4" points="119.67 390.42 127.15 394.16 149.59 382.94 134.63 382.94 119.67 390.42"/><polygon class="cls-4" points="127.15 371.72 119.67 375.46 134.63 382.94 149.59 382.94 127.15 371.72"/><polygon class="cls-1" points="206.37 442.8 168.97 424.1 131.57 442.8 168.97 461.5 206.37 442.8"/><polygon class="cls-5" points="381.65 418.33 344.25 399.63 306.85 418.33 344.25 437.02 381.65 418.33"/><polygon class="cls-6" points="310.75 446.29 273.36 427.59 235.96 446.29 273.36 464.98 310.75 446.29"/><polygon class="cls-1" points="436.57 313.71 399.17 295.01 361.77 313.71 399.17 332.41 436.57 313.71"/><polygon class="cls-1" points="355.47 321.19 318.07 302.49 280.68 321.19 318.07 339.89 355.47 321.19"/><polygon class="cls-4" points="369.97 331.36 362.49 335.1 377.45 342.57 384.76 338.75 369.97 331.36"/><polygon class="cls-4" points="255.69 343.91 263.17 347.65 278.13 340.17 270.65 336.43 255.69 343.91"/><polygon class="cls-4" points="295.63 258.61 280.68 251.13 273.19 254.87 288.15 262.35 295.63 258.61"/><polyline class="cls-1" points="200.16 361.53 192.08 357.79 207.04 350.31 214.52 354.06 199.56 361.53"/><polygon class="cls-4" points="235.79 392.53 243.27 388.79 258.23 396.27 258.23 403.75 235.79 392.53"/><polygon class="cls-4" points="280.68 392.53 273.19 388.79 258.24 396.27 258.24 403.75 280.68 392.53"/><polygon class="cls-4" points="239.57 375.46 247.05 371.72 232.09 364.24 217.13 364.24 239.57 375.46"/><polyline class="cls-4" points="232.31 364.13 217.13 364.24 239.57 353.02 247.05 356.76 232.09 364.24"/><polygon class="cls-4" points="194.51 283.65 202 287.39 216.95 279.91 216.95 272.44 194.51 283.65"/><polygon class="cls-4" points="239.39 283.65 216.95 272.44 216.95 279.91 231.91 287.39 239.39 283.65"/><polygon class="cls-4" points="421.61 343.09 429.09 346.83 451.53 335.61 436.57 335.61 421.61 343.09"/><polygon class="cls-4" points="429.09 324.39 421.61 328.13 436.57 335.61 451.53 335.61 429.09 324.39"/><polygon class="cls-1" points="95.36 457.55 110.32 450.07 125.28 457.55 110.32 465.03 95.36 457.55"/><polygon class="cls-4" points="148.25 492.49 133.29 485.01 125.81 488.75 140.77 496.23 148.25 492.49"/><polyline class="cls-1" points="163.27 360.09 155.19 356.35 170.15 348.88 177.63 352.62 162.67 360.09"/><polygon class="cls-1" points="496.66 369.78 452.44 347.67 408.22 369.78 452.44 391.89 496.66 369.78"/><polygon class="cls-7" points="254.35 313.71 216.95 295.01 179.56 313.71 216.95 332.41 254.35 313.71"/><polygon class="cls-4" points="132.34 321.19 147.3 313.71 162.26 321.19 147.3 328.67 132.34 321.19"/><polygon class="cls-4" points="245.5 281.78 260.46 274.3 275.42 281.78 260.46 289.26 245.5 281.78"/><polygon class="cls-4" points="233.47 481.86 203.55 496.82 203.55 504.3 248.43 481.86 233.47 481.86"/><polygon class="cls-4" points="203.55 496.82 173.63 481.86 158.67 481.86 203.55 504.3 203.55 496.82"/><polygon class="cls-4" points="203.3 466.9 173.38 481.86 158.42 481.86 203.3 459.42 203.3 466.9"/><polygon class="cls-4" points="203.55 459.42 248.43 481.86 233.47 481.86 203.55 466.9 203.55 459.42"/><polygon class="cls-4" points="361.86 281.78 331.94 296.74 331.94 304.22 376.82 281.78 361.86 281.78"/><polygon class="cls-4" points="331.94 296.74 302.02 281.78 287.06 281.78 331.94 304.22 331.94 296.74"/><polygon class="cls-4" points="331.69 266.82 301.77 281.78 286.81 281.78 331.69 259.34 331.69 266.82"/><polygon class="cls-4" points="331.94 259.34 376.82 281.78 361.86 281.78 331.94 266.82 331.94 259.34"/><polygon class="cls-4" points="188.86 279.91 151.46 279.91 188.86 298.61 188.86 279.91"/><polygon class="cls-4" points="376.82 253 339.42 253 376.82 271.7 376.82 253"/><polygon class="cls-2" points="395.52 390.28 358.12 390.28 395.52 408.98 395.52 390.28"/><polygon class="cls-8" points="58.5 331.77 70.61 337.82 70.61 362.04 58.5 355.99 58.5 331.77"/><polygon class="cls-9" points="82.72 319.66 94.82 325.72 70.61 337.82 58.5 331.77 82.72 319.66"/><polygon class="cls-10" points="94.82 325.72 70.61 337.82 70.61 362.04 94.82 349.93 94.82 325.72"/><polygon class="cls-8" points="70.61 325.72 58.5 319.66 58.5 198.59 70.61 204.65 70.61 325.72"/><polygon class="cls-9" points="94.82 192.41 82.72 186.36 58.5 198.47 70.61 204.52 94.82 192.41"/><polygon class="cls-10" points="70.6 325.73 70.6 204.65 94.82 192.54 94.82 313.62 70.6 325.73"/><polygon class="cls-2" points="304.3 427.82 266.91 409.12 229.51 427.82 266.91 446.52 304.3 427.82"/><path class="cls-11" d="M245.79,111.37c-3.17-1.41-7.82-1.33-14.6,1.84l-.62.29s-20.82,10.72-20.82,32.18c0,0,0,9.07,5.89,12.46L195,147.82l-.72-.36c-6-3.36-6-12.5-6-12.5,0-21.46,20.82-32.19,20.82-32.19,7.77-3.78,12.8-3.56,16.08-1.7v0Z"/><path class="cls-3" d="M252.66,124.22c0,21.46-21.46,32.2-21.46,32.2-7.45,3.71-12.31,3.56-15.48,1.77l-.08-.05c-5.89-3.39-5.89-12.46-5.89-12.46,0-21.46,20.82-32.18,20.82-32.18l.62-.29c6.78-3.17,11.43-3.25,14.6-1.84a6.11,6.11,0,0,1,.85.42C252.66,115.21,252.66,124.22,252.66,124.22Z"/><path class="cls-11" d="M244.88,236.35c-3.17-1.37-7.8-1.3-14.56,1.86l-.63.3s-20.82,10.72-20.82,32.18c0,0,0,9.14,6,12.5l-5.17-2.58-15.45-7.72-.83-.42c-6-3.36-6-12.51-6-12.51,0-21.45,20.81-32.18,20.81-32.18,7.78-3.78,12.82-3.57,16.08-1.71h0Z"/><path class="cls-3" d="M252.17,260l-1.73,15.35-4.34,15.88-5.92,15.6-6.93,12.42-7.37,10.25-6.7,6.21-5.71,1.59-2.31-1.73-1.88-4.91.72-5.92.27-.44,4.27-6.92,6.92-9.06,4.68-8.34,2.85-8.25.95-7.83-.52-2.19c-7.16,3.47-11.87,3.27-15,1.52-6-3.36-6-12.5-6-12.5,0-21.46,20.82-32.18,20.82-32.18l.63-.3c6.76-3.16,11.39-3.23,14.56-1.86l.89.45c6,3.42,6,12.43,6,12.43Z"/><polygon class="cls-3" points="353.08 127.81 351.31 161.2 345.59 194.92 335.56 229.97 314.29 284.53 307.89 296.42 301.84 302.92 294.45 308.32 288.94 310.52 287.18 308.32 304.04 252.12 309.88 228.98 314.84 202.75 318.14 174.87 319.47 147.53 317.92 120.87 314.95 97.62 309.88 76.46 304.37 60.26 287.18 23.56 288.94 19.26 293.9 15.63 302.16 11.66 307.89 11 314.4 15.41 321.67 24.22 335.22 45.6 345.37 69.63 351.1 96.41 353.08 127.81"/><polygon class="cls-11" points="319.47 147.53 318.14 174.87 314.84 202.75 309.88 228.98 304.04 252.12 287.18 308.32 288.94 310.52 269.8 299.12 268.5 296.57 285.17 240.63 290.83 217.2 295.46 191.12 298.99 163.64 300.18 136.26 298.94 110.24 295.67 86.5 290.83 66.03 285.12 49.09 268.18 12 287.18 23.56 304.37 60.26 309.88 76.46 314.95 97.62 317.92 120.87 319.47 147.53"/><polygon class="cls-11" points="307.89 11 302.16 11.66 293.9 15.63 288.94 19.26 287.18 23.56 268.18 12 269.85 8 274.68 4.1 283.04 0.47 289.02 0 307.89 11"/><polygon class="cls-11" points="213.86 337.26 192.14 325.07 190 319.99 191.53 313.07 210.66 324.26 210.39 324.7 209.67 330.62 211.55 335.53 213.86 337.26"/><path class="cls-11" d="M230.33,283.86l-1,7.83-2.85,8.25-4.68,8.34-6.91,9.06-4.28,6.92-19.13-11.19,10.4-15.78,5.17-8.85,1.77-5.25.8-2.58,5.17,2.58c3.1,1.75,7.81,1.95,15-1.52Z"/><polygon class="cls-3" points="268.19 479.34 260.72 483.08 275.68 490.56 282.98 486.73 268.19 479.34"/><polygon class="cls-3" points="335.43 486.82 342.9 490.56 357.86 483.08 350.38 479.34 335.43 486.82"/><polygon class="cls-3" points="357.86 524.22 342.9 516.74 335.43 520.48 350.38 527.96 357.86 524.22"/><polyline class="cls-3" points="268.72 527.96 260.63 524.22 275.59 516.74 283.07 520.48 268.11 527.96"/><polygon class="cls-4" points="286.81 529.83 294.28 526.09 309.24 533.57 309.24 541.05 286.81 529.83"/><polygon class="cls-4" points="331.69 529.83 324.21 526.09 309.25 533.57 309.25 541.05 331.69 529.83"/><polygon class="cls-4" points="256.89 514.87 264.37 511.13 249.41 503.65 234.45 503.65 256.89 514.87"/><polyline class="cls-4" points="249.62 503.54 234.45 503.65 256.89 492.43 264.37 496.17 249.41 503.65"/><polygon class="cls-12" points="286.81 474.79 294.29 478.53 309.25 471.05 309.25 463.57 286.81 474.79"/><polygon class="cls-12" points="331.69 474.79 309.25 463.57 309.25 471.05 324.21 478.53 331.69 474.79"/><polygon class="cls-4" points="354.12 511.13 361.6 514.87 384.04 503.65 369.08 503.65 354.12 511.13"/><polygon class="cls-4" points="361.6 492.43 354.12 496.17 369.08 503.65 384.04 503.65 361.6 492.43"/><polygon class="cls-8" points="286.72 483.48 293.93 487.09 293.93 501.52 286.72 497.91 286.72 483.48"/><polygon class="cls-10" points="293.93 487.09 337.22 465.45 337.22 479.88 293.93 501.52 293.93 487.09"/><polygon class="cls-9" points="337.31 465.45 294.02 487.09 286.81 483.48 330.1 461.84 337.31 465.45"/><polygon class="cls-8" points="286.76 461.84 293.98 465.45 293.98 479.88 286.76 476.27 286.76 461.84"/><polygon class="cls-10" points="293.98 465.45 337.26 443.81 337.26 458.24 293.98 479.88 293.98 465.45"/><polygon class="cls-9" points="337.36 443.81 294.07 465.45 286.86 461.84 330.14 440.2 337.36 443.81"/><path class="cls-13" d="M329.1,495.11l8.55-4.27c6.74.68-1.8,5-1.8,5l-34.17,17.09s-8.54,4.27-15.29,3.58l8.54-4.27-8.54,4.27c-6.55-.66,1.79-5,1.79-5l34.17-17.09s8.55-4.27,15.3-3.58"/><polyline class="cls-1" points="347.97 463.16 339.88 459.42 354.84 451.94 362.32 455.68 347.36 463.16"/><polygon class="cls-5" points="482.49 404.86 445.1 386.16 407.7 404.86 445.1 423.56 482.49 404.86"/><path class="cls-13" d="M499,433.5s0,13.2-27.19,13.2H417.39c-27.19,0-27.19-13.2-27.19-13.2s0-13.19,27.19-13.19h54.39C499,420.31,499,433.5,499,433.5Z"/><path class="cls-13" d="M245.1,393.69,256.4,388c11.3,5.65,0,11.3,0,11.3l-45.2,22.6s-11.3,5.65-22.6,0l11.3-5.65-11.3,5.65c-11-5.48,0-11.3,0-11.3L233.8,388s11.3-5.65,22.6,0"/><path class="cls-13" d="M337.3,345.56,350.36,339c12.35,5.12-.7,11.65-.7,11.65l-52.22,26.11s-13.06,6.52-25.41,1.4l13.06-6.52L272,378.19c-12-5,.7-11.65.7-11.65L325,340.43s13.06-6.52,25.41-1.4"/><path class="cls-13" d="M91.79,374.44l6.36-3.18c6.36,3.18,0,6.36,0,6.36L72.7,390.35s-6.36,3.18-12.73,0l6.37-3.18L60,390.35c-6.17-3.09,0-6.36,0-6.36l25.45-12.73s6.37-3.18,12.73,0"/><polygon class="cls-4" points="392.24 485.69 399.72 481.94 384.76 474.47 369.8 474.47 392.24 485.69"/><polyline class="cls-4" points="384.97 474.36 369.8 474.47 392.24 463.25 399.72 466.99 384.76 474.47"/><polygon class="cls-4" points="388.5 440.11 351.1 440.11 388.5 458.81 388.5 440.11"/><polygon class="cls-4" points="402.79 454.69 410.27 458.43 425.23 450.95 417.75 447.21 402.79 454.69"/><polygon class="cls-4" points="387.86 430.51 395.34 434.25 410.3 426.77 402.82 423.03 387.86 430.51"/><polygon class="cls-4" points="380.47 370.97 387.95 374.71 402.91 367.23 395.43 363.49 380.47 370.97"/><polygon class="cls-2" points="504.18 442.8 466.78 424.1 429.38 442.8 466.78 461.5 504.18 442.8"/><path class="cls-14" d="M444.59,289.19l46.16-23.08c7.62-3.91,7.66,3.12,7.66,3.12h0l0,15.23L490.76,280,444.6,303.12Z"/><polygon class="cls-15" points="390.73 276.19 444.59 303.12 444.58 289.19 390.72 262.27 390.73 276.19"/><path class="cls-16" d="M498.44,375.45V283.13c0-7.69-7.69-3.85-7.69-3.85l-46.16,23.08-53.86-26.92v100a13.67,13.67,0,0,0,7.7,11.54l46.16,23.07L490.75,387S498.44,383.14,498.44,375.45Z"/><path class="cls-17" d="M444.6,386.12v11.95L408.87,380.2l-.1-.05a10.59,10.59,0,0,1-6-8.95V293.56l5.87,2.93.11.05,6,3v65.69a10.6,10.6,0,0,0,6,9l.1.05Z"/><path class="cls-3" d="M486.4,299.53v77.64l-5.9,2.95-.07,0c-6,3-6-3-6-3v-65.7l-6,3v23.89l-6,3V317.45l-6,3V392.1l-11.94,6V314.46l35.73-17.86,0,0,.06,0C486.4,293.56,486.4,299.53,486.4,299.53Z"/></g></g></svg>