<svg xmlns="http://www.w3.org/2000/svg" viewBox="0 0 505.3 500.27"><defs><style>.cls-1{fill:#666;}.cls-2,.cls-5,.cls-6,.cls-7{fill:none;stroke-miterlimit:10;}.cls-2{stroke:#9c9b9b;}.cls-3{fill:#e22835;}.cls-4{fill:#999;}.cls-4,.cls-6,.cls-7{opacity:0.25;}.cls-5{stroke:#e22835;stroke-width:5px;opacity:0.51;}.cls-6{stroke:#fde8c6;}.cls-6,.cls-7{stroke-width:4px;}.cls-7{stroke:#999;}.cls-8{fill:#897a6d;}.cls-9{fill:#cebca3;}.cls-10{fill:#fde8c6;}.cls-11{fill:#af222f;}.cls-12{fill:#2f2f2f;}.cls-13{opacity:0.47;}.cls-14{fill:#848484;}.cls-15{fill:#c4c4c4;}.cls-16{fill:#e9ebee;}.cls-17{fill:#024056;}</style></defs><title>Recurso 2</title><g id="Capa_2" data-name="Capa 2"><g id="Capa_2-2" data-name="Capa 2"><polygon class="cls-1" points="365.03 325.57 327.63 306.87 290.24 325.57 327.63 344.27 365.03 325.57"/><polygon class="cls-1" points="151.46 306.87 114.06 288.18 76.66 306.87 114.06 325.57 151.46 306.87"/><polygon class="cls-1" points="114.06 383.33 76.66 364.63 39.26 383.33 76.66 402.02 114.06 383.33"/><polygon class="cls-1" points="238.27 362.97 178.03 332.86 117.8 362.97 178.03 393.09 238.27 362.97"/><polygon class="cls-2" points="399.08 323.46 324.95 286.4 250.83 323.46 324.95 360.52 399.08 323.46"/><polygon class="cls-3" points="33.74 317.85 26.27 321.59 41.23 329.07 48.53 325.25 33.74 317.85"/><polygon class="cls-3" points="100.97 325.33 108.45 329.07 123.41 321.59 115.93 317.85 100.97 325.33"/><polygon class="cls-3" points="123.41 362.73 108.45 355.25 100.97 358.99 115.93 366.47 123.41 362.73"/><polyline class="cls-3" points="34.27 366.47 26.18 362.73 41.14 355.25 48.62 358.99 33.66 366.47"/><polygon class="cls-4" points="52.35 368.34 59.83 364.6 74.79 372.08 74.79 379.56 52.35 368.34"/><polygon class="cls-4" points="97.23 368.34 89.75 364.6 74.8 372.08 74.8 379.56 97.23 368.34"/><polygon class="cls-4" points="22.44 353.38 29.92 349.64 14.96 342.16 0 342.16 22.44 353.38"/><polyline class="cls-4" points="15.17 342.06 0 342.16 22.44 330.94 29.92 334.68 14.96 342.16"/><polygon class="cls-4" points="52.36 315.99 59.84 319.73 74.8 312.25 74.8 304.77 52.36 315.99"/><polygon class="cls-4" points="97.23 315.99 74.8 304.77 74.8 312.25 89.75 319.73 97.23 315.99"/><polygon class="cls-4" points="119.67 349.64 127.15 353.38 149.59 342.16 134.63 342.16 119.67 349.64"/><polygon class="cls-4" points="127.15 330.94 119.67 334.68 134.63 342.16 149.59 342.16 127.15 330.94"/><polygon class="cls-1" points="206.37 402.02 168.97 383.33 131.57 402.02 168.97 420.72 206.37 402.02"/><polygon class="cls-5" points="381.65 377.55 344.25 358.85 306.85 377.55 344.25 396.25 381.65 377.55"/><polygon class="cls-6" points="310.75 405.51 273.36 386.81 235.96 405.51 273.36 424.21 310.75 405.51"/><polygon class="cls-1" points="436.57 272.94 399.17 254.24 361.77 272.94 399.17 291.63 436.57 272.94"/><polygon class="cls-1" points="355.47 280.42 318.07 261.72 280.68 280.42 318.07 299.12 355.47 280.42"/><polygon class="cls-4" points="369.97 290.58 362.49 294.32 377.45 301.8 384.76 297.97 369.97 290.58"/><polygon class="cls-4" points="255.69 303.13 263.17 306.87 278.13 299.39 270.65 295.65 255.69 303.13"/><polygon class="cls-4" points="295.63 217.84 280.68 210.35 273.19 214.09 288.15 221.57 295.63 217.84"/><polyline class="cls-1" points="200.16 320.76 192.08 317.02 207.04 309.54 214.52 313.28 199.56 320.76"/><polygon class="cls-4" points="235.79 351.75 243.27 348.01 258.23 355.49 258.23 362.97 235.79 351.75"/><polygon class="cls-4" points="280.68 351.75 273.19 348.01 258.24 355.49 258.24 362.97 280.68 351.75"/><polygon class="cls-4" points="239.57 334.68 247.05 330.94 232.09 323.46 217.13 323.46 239.57 334.68"/><polyline class="cls-4" points="232.31 323.36 217.13 323.46 239.57 312.24 247.05 315.98 232.09 323.46"/><polygon class="cls-4" points="194.51 242.88 202 246.62 216.95 239.14 216.95 231.66 194.51 242.88"/><polygon class="cls-4" points="239.39 242.88 216.95 231.66 216.95 239.14 231.91 246.62 239.39 242.88"/><polygon class="cls-4" points="421.61 302.31 429.09 306.05 451.53 294.83 436.57 294.83 421.61 302.31"/><polygon class="cls-4" points="429.09 283.61 421.61 287.35 436.57 294.83 451.53 294.83 429.09 283.61"/><polygon class="cls-1" points="95.36 416.77 110.32 409.29 125.28 416.77 110.32 424.25 95.36 416.77"/><polygon class="cls-4" points="148.25 451.72 133.29 444.24 125.81 447.98 140.77 455.46 148.25 451.72"/><polyline class="cls-1" points="163.27 319.32 155.19 315.58 170.15 308.1 177.63 311.84 162.67 319.32"/><polygon class="cls-1" points="496.66 329.01 452.44 306.9 408.22 329.01 452.44 351.12 496.66 329.01"/><polygon class="cls-7" points="254.35 272.94 216.95 254.24 179.56 272.94 216.95 291.63 254.35 272.94"/><polygon class="cls-4" points="132.34 280.42 147.3 272.94 162.26 280.42 147.3 287.9 132.34 280.42"/><polygon class="cls-4" points="245.5 241.01 260.46 233.53 275.42 241.01 260.46 248.49 245.5 241.01"/><polygon class="cls-4" points="233.47 441.08 203.55 456.04 203.55 463.52 248.43 441.08 233.47 441.08"/><polygon class="cls-4" points="203.55 456.04 173.63 441.08 158.67 441.08 203.55 463.52 203.55 456.04"/><polygon class="cls-4" points="203.3 426.12 173.38 441.08 158.42 441.08 203.3 418.64 203.3 426.12"/><polygon class="cls-4" points="203.55 418.64 248.43 441.08 233.47 441.08 203.55 426.12 203.55 418.64"/><polygon class="cls-4" points="361.86 241.01 331.94 255.97 331.94 263.44 376.82 241.01 361.86 241.01"/><polygon class="cls-4" points="331.94 255.97 302.02 241.01 287.06 241.01 331.94 263.44 331.94 255.97"/><polygon class="cls-4" points="331.69 226.05 301.77 241.01 286.81 241.01 331.69 218.57 331.69 226.05"/><polygon class="cls-4" points="331.94 218.57 376.82 241.01 361.86 241.01 331.94 226.05 331.94 218.57"/><polygon class="cls-4" points="188.86 239.14 151.46 239.14 188.86 257.84 188.86 239.14"/><polygon class="cls-4" points="376.82 212.23 339.42 212.23 376.82 230.92 376.82 212.23"/><polygon class="cls-2" points="395.52 349.5 358.12 349.5 395.52 368.2 395.52 349.5"/><polygon class="cls-8" points="58.5 291 70.61 297.05 70.61 321.26 58.5 315.21 58.5 291"/><polygon class="cls-9" points="82.72 278.89 94.82 284.94 70.61 297.05 58.5 291 82.72 278.89"/><polygon class="cls-10" points="94.82 284.94 70.61 297.05 70.61 321.26 94.82 309.16 94.82 284.94"/><polygon class="cls-8" points="70.61 284.94 58.5 278.89 58.5 157.82 70.61 163.87 70.61 284.94"/><polygon class="cls-9" points="94.82 151.64 82.72 145.58 58.5 157.69 70.61 163.74 94.82 151.64"/><polygon class="cls-10" points="70.6 284.95 70.6 163.88 94.82 151.77 94.82 272.84 70.6 284.95"/><polygon class="cls-2" points="304.3 387.04 266.91 368.34 229.51 387.04 266.91 405.74 304.3 387.04"/><path class="cls-11" d="M245.79,111.37c-3.17-1.41-7.82-1.33-14.6,1.84l-.62.29s-20.82,10.72-20.82,32.18c0,0,0,9.07,5.89,12.46L195,147.82l-.72-.36c-6-3.36-6-12.5-6-12.5,0-21.46,20.82-32.19,20.82-32.19,7.77-3.78,12.8-3.56,16.08-1.7v0Z"/><path class="cls-3" d="M252.66,124.22c0,21.46-21.46,32.2-21.46,32.2-7.45,3.71-12.31,3.56-15.48,1.77l-.08-.05c-5.89-3.39-5.89-12.46-5.89-12.46,0-21.46,20.82-32.18,20.82-32.18l.62-.29c6.78-3.17,11.43-3.25,14.6-1.84a6.11,6.11,0,0,1,.85.42C252.66,115.21,252.66,124.22,252.66,124.22Z"/><path class="cls-11" d="M244.88,236.35c-3.17-1.37-7.8-1.3-14.56,1.86l-.63.3s-20.82,10.72-20.82,32.18c0,0,0,9.14,6,12.5l-5.17-2.58-15.45-7.72-.83-.42c-6-3.36-6-12.51-6-12.51,0-21.45,20.81-32.18,20.81-32.18,7.78-3.78,12.82-3.57,16.08-1.71h0Z"/><path class="cls-3" d="M252.17,260l-1.73,15.35-4.34,15.88-5.92,15.6-6.93,12.42-7.37,10.25-6.7,6.21-5.71,1.59-2.31-1.73-1.88-4.91.72-5.92.27-.44,4.27-6.92,6.92-9.06,4.68-8.34,2.85-8.25.95-7.83-.52-2.19c-7.16,3.47-11.87,3.27-15,1.52-6-3.36-6-12.5-6-12.5,0-21.46,20.82-32.18,20.82-32.18l.63-.3c6.76-3.16,11.39-3.23,14.56-1.86l.89.45c6,3.42,6,12.43,6,12.43Z"/><polygon class="cls-3" points="353.08 127.81 351.31 161.2 345.59 194.92 335.56 229.97 314.29 284.53 307.89 296.42 301.84 302.92 294.45 308.32 288.94 310.52 287.18 308.32 304.04 252.12 309.88 228.98 314.84 202.75 318.14 174.87 319.47 147.53 317.92 120.87 314.95 97.62 309.88 76.46 304.37 60.26 287.18 23.56 288.94 19.26 293.9 15.63 302.16 11.66 307.89 11 314.4 15.41 321.67 24.22 335.22 45.6 345.37 69.63 351.1 96.41 353.08 127.81"/><polygon class="cls-11" points="319.47 147.53 318.14 174.87 314.84 202.75 309.88 228.98 304.04 252.12 287.18 308.32 288.94 310.52 269.8 299.12 268.5 296.57 285.17 240.63 290.83 217.2 295.46 191.12 298.99 163.64 300.18 136.26 298.94 110.24 295.67 86.5 290.83 66.03 285.12 49.09 268.18 12 287.18 23.56 304.37 60.26 309.88 76.46 314.95 97.62 317.92 120.87 319.47 147.53"/><polygon class="cls-11" points="307.89 11 302.16 11.66 293.9 15.63 288.94 19.26 287.18 23.56 268.18 12 269.85 8 274.68 4.1 283.04 0.47 289.02 0 307.89 11"/><polygon class="cls-11" points="213.86 337.26 192.14 325.07 190 319.99 191.53 313.07 210.66 324.26 210.39 324.7 209.67 330.62 211.55 335.53 213.86 337.26"/><path class="cls-11" d="M230.33,283.86l-1,7.83-2.85,8.25-4.68,8.34-6.91,9.06-4.28,6.92-19.13-11.19,10.4-15.78,5.17-8.85,1.77-5.25.8-2.58,5.17,2.58c3.1,1.75,7.81,1.95,15-1.52Z"/><polygon class="cls-3" points="268.19 438.56 260.72 442.3 275.68 449.78 282.98 445.96 268.19 438.56"/><polygon class="cls-3" points="335.43 446.04 342.9 449.78 357.86 442.3 350.38 438.56 335.43 446.04"/><polygon class="cls-3" points="357.86 483.44 342.9 475.96 335.43 479.7 350.38 487.18 357.86 483.44"/><polyline class="cls-3" points="268.72 487.18 260.63 483.44 275.59 475.96 283.07 479.7 268.11 487.18"/><polygon class="cls-4" points="286.81 489.05 294.28 485.31 309.24 492.79 309.24 500.27 286.81 489.05"/><polygon class="cls-4" points="331.69 489.05 324.21 485.31 309.25 492.79 309.25 500.27 331.69 489.05"/><polygon class="cls-4" points="256.89 474.09 264.37 470.35 249.41 462.87 234.45 462.87 256.89 474.09"/><polyline class="cls-4" points="249.62 462.77 234.45 462.87 256.89 451.65 264.37 455.39 249.41 462.87"/><polygon class="cls-12" points="286.81 434.01 294.29 437.75 309.25 430.27 309.25 422.8 286.81 434.01"/><polygon class="cls-12" points="331.69 434.01 309.25 422.8 309.25 430.27 324.21 437.75 331.69 434.01"/><polygon class="cls-4" points="354.12 470.35 361.6 474.09 384.04 462.87 369.08 462.87 354.12 470.35"/><polygon class="cls-4" points="361.6 451.65 354.12 455.39 369.08 462.87 384.04 462.87 361.6 451.65"/><polygon class="cls-8" points="286.72 442.71 293.93 446.31 293.93 460.74 286.72 457.13 286.72 442.71"/><polygon class="cls-10" points="293.93 446.31 337.22 424.67 337.22 439.1 293.93 460.74 293.93 446.31"/><polygon class="cls-9" points="337.31 424.67 294.02 446.31 286.81 442.71 330.1 421.07 337.31 424.67"/><polygon class="cls-8" points="286.76 421.07 293.98 424.67 293.98 439.1 286.76 435.49 286.76 421.07"/><polygon class="cls-10" points="293.98 424.67 337.26 403.03 337.26 417.46 293.98 439.1 293.98 424.67"/><polygon class="cls-9" points="337.36 403.03 294.07 424.67 286.86 421.07 330.14 399.42 337.36 403.03"/><path class="cls-13" d="M329.1,454.33l8.55-4.27c6.74.68-1.8,4.95-1.8,4.95L301.68,472.1s-8.54,4.27-15.29,3.59l8.54-4.27-8.54,4.27c-6.55-.66,1.79-5,1.79-5l34.17-17.08s8.55-4.27,15.3-3.59"/><polyline class="cls-1" points="347.97 422.38 339.88 418.64 354.84 411.16 362.32 414.9 347.36 422.38"/><polygon class="cls-5" points="482.49 364.08 445.1 345.38 407.7 364.08 445.1 382.78 482.49 364.08"/><path class="cls-13" d="M499,392.73s0,13.19-27.19,13.19H417.39c-27.19,0-27.19-13.19-27.19-13.19s0-13.2,27.19-13.2h54.39C499,379.53,499,392.73,499,392.73Z"/><path class="cls-13" d="M245.1,393.69,256.4,388c11.3,5.65,0,11.3,0,11.3l-45.2,22.6s-11.3,5.65-22.6,0l11.3-5.65-11.3,5.65c-11-5.48,0-11.3,0-11.3L233.8,388s11.3-5.65,22.6,0"/><path class="cls-13" d="M337.3,345.56,350.36,339c12.35,5.12-.7,11.65-.7,11.65l-52.22,26.11s-13.06,6.52-25.41,1.4l13.06-6.52L272,378.19c-12-5,.7-11.65.7-11.65L325,340.43s13.06-6.52,25.41-1.4"/><path class="cls-13" d="M91.79,333.67l6.36-3.18c6.36,3.18,0,6.36,0,6.36L72.7,349.57s-6.36,3.18-12.73,0l6.37-3.18L60,349.57c-6.17-3.09,0-6.36,0-6.36l25.45-12.72s6.37-3.18,12.73,0"/><polygon class="cls-4" points="392.24 444.91 399.72 441.17 384.76 433.69 369.8 433.69 392.24 444.91"/><polyline class="cls-4" points="384.97 433.58 369.8 433.69 392.24 422.47 399.72 426.21 384.76 433.69"/><polygon class="cls-4" points="388.5 399.33 351.1 399.33 388.5 418.03 388.5 399.33"/><polygon class="cls-4" points="402.79 413.92 410.27 417.66 425.23 410.18 417.75 406.44 402.79 413.92"/><polygon class="cls-4" points="387.86 389.73 395.34 393.47 410.3 385.99 402.82 382.25 387.86 389.73"/><polygon class="cls-4" points="380.47 330.2 387.95 333.94 402.91 326.46 395.43 322.72 380.47 330.2"/><polygon class="cls-2" points="504.18 402.02 466.78 383.33 429.38 402.02 466.78 420.72 504.18 402.02"/><path class="cls-14" d="M444.59,248.42l46.16-23.08c7.62-3.92,7.66,3.12,7.66,3.12h0l0,15.23-7.69-4.42L444.6,262.35Z"/><polygon class="cls-15" points="390.73 235.42 444.59 262.35 444.58 248.42 390.72 221.49 390.73 235.42"/><path class="cls-16" d="M498.44,334.67V242.35c0-7.69-7.69-3.84-7.69-3.84l-46.16,23.08-53.86-26.93v100a13.67,13.67,0,0,0,7.7,11.54l46.16,23.08,46.16-23.08S498.44,342.36,498.44,334.67Z"/><path class="cls-17" d="M444.6,345.35v11.94l-35.73-17.86-.1-.05a10.61,10.61,0,0,1-6-9V252.78l5.87,2.94.11.05,6,3v65.7a10.61,10.61,0,0,0,6,9l.1,0Z"/><path class="cls-3" d="M486.4,258.75v77.64l-5.9,2.95-.07,0c-6,3-6-3-6-3V270.7l-6,3v23.89l-6,3V276.67l-6,3v71.66l-11.94,6V273.68l35.73-17.86,0,0,.06,0C486.4,252.78,486.4,258.75,486.4,258.75Z"/></g></g></svg>