<svg id="Capa_1" data-name="Capa 1" xmlns="http://www.w3.org/2000/svg" viewBox="0 0 478.06 483.94"><defs><style>.cls-1{fill:#969696;}.cls-2{fill:#e9ebee;}.cls-3{fill:#024056;}.cls-4{fill:#e22835;}</style></defs><title>Mesa de trabajo 3-123</title><polyline class="cls-1" points="94.16 1.03 94.16 29.23 76.1 20.2 94.16 0"/><polygon class="cls-1" points="401.15 354.18 416.87 336.39 407.64 337.06 401.15 354.18"/><path class="cls-1" d="M410.12,330.36V44.07c0-23.86-23.86-11.93-23.86-11.93L243.11,103.72,76.1,20.21V330.36A42.38,42.38,0,0,0,100,366.15l143.15,71.57,143.15-71.57S410.12,354.22,410.12,330.36Z"/><path class="cls-2" d="M428.18,310.16V23.87c0-23.86-23.86-11.93-23.86-11.93L261.17,83.51,94.16,0V310.16A42.38,42.38,0,0,0,118,346l143.15,71.57L404.32,346S428.18,334,428.18,310.16Z"/><path class="cls-3" d="M261.2,343.28v37L150.4,324.91l-.32-.15A32.9,32.9,0,0,1,131.56,297V56.21l18.2,9.1.32.16,18.52,9.26V278.46a32.9,32.9,0,0,0,18.52,27.78l.32.15Z"/><path class="cls-4" d="M390.85,74.73V315.5l-18.31,9.15-.21.11c-18.52,9.26-18.52-9.26-18.52-9.26V111.77L335.29,121v74.08l-18.52,9.26V130.29l-18.52,9.26V361.8L261.2,380.32V121L372,65.63l.11,0,.2-.11C390.85,56.21,390.85,74.73,390.85,74.73Z"/></svg>