<svg xmlns="http://www.w3.org/2000/svg" viewBox="0 0 334.02 417.51"><defs><style>.cls-1{fill:#e9ebee;}.cls-2{fill:#024056;}.cls-3{fill:#e22835;}</style></defs><title>Recurso 1</title><g id="Capa_2" data-name="Capa 2"><g id="Capa_7" data-name="Capa 7"><path class="cls-1" d="M334,310.15V23.86C334,0,310.16,11.93,310.16,11.93L167,83.5,0,0V310.15a42.38,42.38,0,0,0,23.86,35.79L167,417.51l143.15-71.57S334,334,334,310.15Z"/><path class="cls-2" d="M167,343.27v37L56.24,324.9l-.32-.15A32.9,32.9,0,0,1,37.4,297V56.2l18.2,9.1.32.16,18.52,9.26V278.45A32.9,32.9,0,0,0,93,306.23l.32.15Z"/><path class="cls-3" d="M296.69,74.72V315.49l-18.32,9.15-.2.11c-18.52,9.26-18.52-9.26-18.52-9.26V111.76L241.13,121V195.1l-18.52,9.26V130.28l-18.52,9.26V361.79L167,380.31V121l110.82-55.4a.46.46,0,0,0,.1-.05l.21-.11C296.69,56.2,296.69,74.72,296.69,74.72Z"/></g></g></svg>