<svg xmlns="http://www.w3.org/2000/svg" viewBox="0 0 5183.31 1245.52"><defs><style>.cls-1{fill:#af222f;}.cls-2{fill:none;}.cls-2,.cls-3{stroke:#000;stroke-miterlimit:10;stroke-width:0.5px;}.cls-3{fill:#b72c3d;}.cls-4{fill:#e22835;}</style></defs><title>Recurso 12</title><g id="Capa_2" data-name="Capa 2"><g id="Capa_1-2" data-name="Capa 1"><polygon class="cls-1" points="4461.6 1229.73 4461.6 1229.12 4290.9 1229.12 4290.9 359.16 4287.61 359.16 4166.07 1164.47 4220.66 1164.47 4156.37 1228.75 4156 1229.12 4005.29 1229.12 3873.97 359.16 3870.68 359.16 3870.68 1164.52 3935.05 1164.52 3935.1 1164.57 3870.68 1228.99 3870.55 1229.12 3713.12 1229.12 3713.12 80.11 3777.62 15.6 3777.62 80.11 3970.82 80.11 4085.72 902.47 4089 902.47 4203.9 80.11 4268.39 15.62 4259.38 80.11 4461.6 80.11 4461.6 1165.14 4526.1 1165.14 4526.15 1165.18 4461.6 1229.73"/><polygon class="cls-1" points="3870.68 1228.99 3870.68 1229.12 3870.55 1229.12 3870.68 1228.99"/><polygon class="cls-1" points="4156.37 1228.75 4156.31 1229.12 4156 1229.12 4156.37 1228.75"/><polygon class="cls-1" points="4156 1229.12 4155.96 1229.16 4155.97 1229.12 4156 1229.12"/><polygon class="cls-1" points="1182.54 1064.85 1494.4 1064.85 1494.4 1228.99 1001.98 1228.99 1001.98 79.98 1066.48 15.48 1066.48 79.98 1494.4 79.98 1494.4 244.13 1182.54 244.13 1182.54 547.79 1430.38 547.79 1430.38 647.39 1494.93 647.39 1430.38 711.94 1182.54 711.94 1182.54 1064.85"/><polyline class="cls-1" points="1558.91 1164.39 1494.41 1164.39 1494.41 1228.99 1494.41 1228.98 1558.95 1164.44"/><polygon class="cls-1" points="2256.66 1164.52 2192.16 1229.03 2192.16 1229.12 1714.52 1229.12 1714.52 80.11 1779.02 15.61 1779.02 80.11 1895.08 80.11 1895.08 1064.98 2192.16 1064.98 2192.16 1164.52 2256.66 1164.52"/><path class="cls-1" d="M2926.56,402.9l-64.5,64.51v.08h-170.7V334.54q0-106.68-90.29-106.7t-90.28,106.7v641.8q0,105.06,90.28,105.05t90.29-105.05V800.71l64.5-64.51v64.51h106.2V963.2q0,134.6-68.12,208.47t-197.79,73.85q-129.69,0-197.8-73.85T2330.23,963.2V346q0-134.59,68.12-208.44t197.8-73.88q129.66,0,197.79,73.88T2862.06,346V402.9Z"/><path class="cls-1" d="M3095.2,1170q-70.59-75.49-70.57-213.4v-604q0-137.85,70.57-213.37T3298.76,63.7q132.93,0,203.52,75.52t70.59,213.37v604q0,137.92-70.59,213.4t-203.52,75.49Q3165.77,1245.52,3095.2,1170Zm297.13-201.9v-627q0-113.25-93.57-113.26T3205.2,341.1v627q0,113.28,93.56,113.26T3392.33,968.13Z"/><polygon class="cls-1" points="5118.76 80.11 5118.76 244.26 4806.89 244.26 4806.89 547.92 5054.74 547.92 5054.74 712.07 4806.89 712.07 4806.89 1064.98 5118.76 1064.98 5118.76 1229.12 4626.33 1229.12 4626.33 80.11 4690.83 15.61 4690.83 80.11 5118.76 80.11"/><line class="cls-2" x1="569.29" y1="15.56" x2="569.24" y2="15.61"/><line class="cls-2" x1="569.25" y1="15.52" x2="569.24" y2="15.61"/><polygon class="cls-1" points="755.17 1163.43 814.2 1163.43 748.51 1229.12 523.62 1229.12 441.55 454.35 438.26 454.35 363.04 1164.57 420.74 1164.57 356.2 1229.12 116.54 1229.12 0 80.11 64.51 15.6 71.05 80.11 173.99 80.11 254.42 963.2 257.7 963.2 343.06 80.11 407.55 15.61 401.31 80.11 540.04 80.11 625.4 963.2 628.68 963.2 709.11 80.11 773.65 15.56 767.72 80.11 865.05 80.11 755.17 1163.43"/><line class="cls-3" x1="1183.19" y1="15.56" x2="1183.14" y2="15.61"/><line class="cls-3" x1="1183.14" y1="15.61" x2="1183.14" y2="15.52"/><line class="cls-2" x1="1779.02" y1="15.56" x2="1778.97" y2="15.61"/><line class="cls-2" x1="1778.97" y1="15.61" x2="1778.97" y2="15.52"/><line class="cls-1" x1="2192.11" y1="1229.03" x2="2192.07" y2="1229.07"/><line class="cls-1" x1="2686.72" y1="736.16" x2="2686.68" y2="736.2"/><line class="cls-1" x1="2686.68" y1="736.2" x2="2686.68" y2="736.12"/><line class="cls-1" x1="2792.88" y1="467.41" x2="2792.84" y2="467.45"/><line class="cls-2" x1="3625.6" y1="15.56" x2="3625.56" y2="15.6"/><line class="cls-2" x1="3625.56" y1="15.6" x2="3625.56" y2="15.52"/><line class="cls-2" x1="4116.39" y1="15.56" x2="4116.33" y2="15.62"/><line class="cls-2" x1="4116.34" y1="15.52" x2="4116.33" y2="15.62"/><line class="cls-2" x1="4508.69" y1="15.56" x2="4508.64" y2="15.61"/><line class="cls-2" x1="4508.64" y1="15.61" x2="4508.64" y2="15.52"/><path class="cls-4" d="M63.91,16.41h174L318.33,899.5h3.28L407,16.41H604L689.3,899.5h3.29L773,16.41H929l-116.55,1149H587.52L505.46,390.65h-3.29L420.1,1165.41H180.45Z"/><path class="cls-4" d="M1065.36,16.41h492.43V180.56H1245.93V484.21h247.84V648.37H1245.93v352.91h311.86v164.13H1065.36Z"/><path class="cls-4" d="M1779,16.41h180.56v984.87h297.08v164.13H1779Z"/><path class="cls-4" d="M2462.85,1108q-68.13-73.85-68.11-208.46V282.32q0-134.59,68.11-208.45T2660.65,0q129.66,0,197.8,73.87t68.11,208.45V403.79h-170.7v-133q0-106.68-90.28-106.7t-90.28,106.7v641.8q0,105.06,90.28,105t90.28-105V737h170.7V899.5q0,134.6-68.11,208.46t-197.8,73.86Q2531,1181.82,2462.85,1108Z"/><path class="cls-4" d="M3163,1106.32q-70.59-75.48-70.57-213.39v-604q0-137.85,70.57-213.37T3366.51,0Q3499.44,0,3570,75.52t70.59,213.37v604q0,137.91-70.59,213.39t-203.52,75.5Q3233.52,1181.82,3163,1106.32Zm297.13-201.89v-627q0-113.25-93.57-113.25t-93.57,113.25v627q0,113.27,93.57,113.25T3460.08,904.43Z"/><path class="cls-4" d="M3777.66,16.41h257.71l114.89,822.36h3.29l114.9-822.36h257.7v1149H4355.44V295.46h-3.28l-131.31,870h-151L3938.51,295.46h-3.28v870H3777.66Z"/><path class="cls-4" d="M4690.88,16.41h492.43V180.56H4871.44V484.21h247.85V648.37H4871.44v352.91h311.87v164.13H4690.88Z"/><line class="cls-1" x1="916.86" y1="1163.43" x2="916.75" y2="1163.43"/><polyline class="cls-1" points="1493.89 179.68 1493.89 244.26 1558.44 179.72"/><polyline class="cls-1" points="5183.31 179.72 5118.76 244.26 5118.76 179.68 5183.26 179.68"/><polyline class="cls-1" points="4937.09 647.53 4872.55 712.07 4872.55 647.48 4937.05 647.48"/><polyline class="cls-1" points="5118.76 647.53 5054.22 712.07 5054.22 647.48 5118.72 647.48"/><polyline class="cls-1" points="5183.31 1164.57 5118.76 1229.12 5118.76 1164.53 5183.26 1164.53"/></g></g></svg>